<?xml version="1.0" encoding="UTF-8"?> <svg xmlns="http://www.w3.org/2000/svg" width="28.557" height="28.557" viewBox="0 0 28.557 28.557"><g id="Data_Products" data-name="Data Products" transform="translate(-2.25 -1.125)"><path id="Tracciato_2033" data-name="Tracciato 2033" d="M29.822,18.99H25.883V15.051H23.914v8.862H8.158V8.158h8.862V6.189H13.082V2.25H11.112V6.189H8.158A1.971,1.971,0,0,0,6.189,8.158v2.954H2.25v1.969H6.189V18.99H2.25V20.96H6.189v2.954a1.971,1.971,0,0,0,1.969,1.969h2.954v3.939h1.969V25.883H18.99v3.939H20.96V25.883h2.954a1.972,1.972,0,0,0,1.969-1.969V20.96h3.939Z" transform="translate(0 -0.14)" fill="#161719"></path><path id="Tracciato_2034" data-name="Tracciato 2034" d="M22.222,22.222H12.375V12.375h9.847Zm-7.878-1.969h5.908V14.344H14.344Z" transform="translate(-1.263 -1.403)" fill="#161719"></path><path id="Tracciato_2035" data-name="Tracciato 2035" d="M33.192,12.942H31.222a9.859,9.859,0,0,0-9.847-9.847V1.125A11.83,11.83,0,0,1,33.192,12.942Z" transform="translate(-2.385)" fill="#161719"></path><path id="Tracciato_2036" data-name="Tracciato 2036" d="M28.268,13.643H26.3a4.93,4.93,0,0,0-4.924-4.924V6.75a6.9,6.9,0,0,1,6.893,6.893Z" transform="translate(-2.385 -0.701)" fill="#161719"></path></g></svg>